<svg width="0" height="0" class="hidden">
  <symbol xmlns="http://www.w3.org/2000/svg" viewBox="0 0 64 64" id="pencil-paper">>
    <path data-name="layer1" fill="none" stroke-miterlimit="10" d="M56 2.4l-26.1 26-4 9.7 9.7-4.1 26-26L56 2.4z" stroke-linejoin="round" stroke-linecap="round"></path>
    <path data-name="layer2" fill="none" stroke-miterlimit="10" d="M34.4 11.6h-32v50h50v-32" stroke-linejoin="round" stroke-linecap="round"></path>
    <path data-name="layer1" fill="none" stroke-miterlimit="10" d="M50.8 7.6l5.6 5.6" stroke-linejoin="round" stroke-linecap="round"></path>
  </symbol>

  <symbol xmlns="http://www.w3.org/2000/svg" viewBox="0 0 64 64" id="view">
    <path data-name="layer2" d="M32 14.5C14.8 14.5 2.5 32 2.5 32S14.8 49.5 32 49.5 61.5 32 61.5 32 49.2 14.5 32 14.5z" fill="none" stroke-miterlimit="10" stroke-linejoin="round" stroke-linecap="round"></path>
    <circle data-name="layer1" cx="32" cy="31.5" r="10" fill="none" stroke-miterlimit="10" stroke-linejoin="round" stroke-linecap="round"></circle>
    <path data-name="layer1" d="M28.5 29.5a4 4 0 0 0 3.5 6" fill="none" stroke-miterlimit="10" stroke-linejoin="round" stroke-linecap="round"></path>
  </symbol>

  <symbol xmlns="http://www.w3.org/2000/svg" viewBox="0 0 64 64" id="find">
    <circle data-name="layer1" cx="24.2" cy="24.2" r="22.2" fill="none" stroke-miterlimit="10" stroke-linejoin="round" stroke-linecap="round"></circle>
    <path data-name="layer1" fill="none" stroke-miterlimit="10" d="M39.9 39.9L62 62" stroke-linejoin="round" stroke-linecap="round"></path>
  </symbol>

  <symbol xmlns="http://www.w3.org/2000/svg" viewBox="0 0 64 64" id="add">
    <path data-name="layer2" fill="none" stroke-miterlimit="10" d="M16 16h46v46H16z" stroke-linejoin="round" stroke-linecap="round"></path>
    <path data-name="layer2" fill="none" stroke-miterlimit="10" d="M16 48H2V2h46v14" stroke-linejoin="round" stroke-linecap="round"></path>
    <path data-name="layer1" fill="none" stroke-miterlimit="10" d="M39 26v26m13-13H26" stroke-linejoin="round" stroke-linecap="round"></path>
  </symbol>

  <symbol xmlns="http://www.w3.org/2000/svg" viewBox="0 0 64 64" id="rounded-add">
    <circle data-name="layer2" cx="32" cy="32" r="30" fill="none" stroke-miterlimit="10" stroke-linejoin="round" stroke-linecap="round" />
    <path data-name="layer1" fill="none" stroke-miterlimit="10" d="M32 16v32m16-16H16" stroke-linejoin="round" stroke-linecap="round" />
  </symbol>

  <symbol xmlns="http://www.w3.org/2000/svg" viewBox="0 0 64 64" id="rounded-minus">
    <circle data-name="layer2" cx="32" cy="32" r="30" fill="none" stroke-miterlimit="10" stroke-linejoin="round" stroke-linecap="round" id="circle6" />
    <path data-name="layer1" stroke-miterlimit="10" d="M 48,32 H 16" id="path8" style="fill:none;stroke-linecap:round;stroke-linejoin:round;stroke-miterlimit:10" />
  </symbol>


</svg>
